<svg width="48" height="48" viewBox="0 0 48 48" fill="none" xmlns="http://www.w3.org/2000/svg">
<path fill-rule="evenodd" clip-rule="evenodd" d="M29.0321 0.0793536C29.378 0.139851 29.7152 0.23864 30.0505 0.388048C33.1381 1.76407 33.3197 5.8272 30.9278 8.20904L28.2141 10.9113C26.9818 12.1384 25.0358 12.122 23.4032 11.5149C22.4983 11.1632 21.5712 11.0093 20.6221 11.0533C19.673 11.0753 18.7295 11.3116 17.7914 11.7621C16.8423 12.2017 15.9263 12.8611 15.0434 13.7402C13.4984 15.2787 12.5658 16.9546 12.2458 18.7679C11.9368 20.5701 12.2072 22.4438 13.0569 24.389C13.9177 26.3231 15.3304 28.2682 17.2948 30.2244C19.3695 32.2904 21.3836 33.7465 23.337 34.5927C25.2904 35.4169 27.15 35.6531 28.9157 35.3015C30.6704 34.9388 32.2928 34.0157 33.7826 32.5321C34.6324 31.686 35.289 30.8233 35.7525 29.9441C36.205 29.054 36.4754 28.1583 36.5637 27.2572C36.652 26.3561 36.5637 25.4659 36.2988 24.5868C35.8237 22.9703 35.8685 21.1046 37.073 19.9221L39.7699 17.2744C42.2608 14.8289 46.3602 15.0493 47.5556 18.3228C47.5835 18.3998 47.6109 18.4771 47.6377 18.5546C47.8507 19.1691 47.9547 19.8125 47.9878 20.4614V9.2154C47.9878 4.1697 43.8801 0.0793536 38.813 0.0793536H29.0321Z" fill="white"/>
<path d="M29.0321 0.0793536C29.378 0.139851 29.7152 0.23864 30.0505 0.388048C33.1381 1.76407 33.3197 5.8272 30.9278 8.20904L28.2141 10.9113C26.9818 12.1384 25.0358 12.122 23.4032 11.5149C22.4983 11.1632 21.5712 11.0093 20.6221 11.0533C19.673 11.0753 18.7295 11.3116 17.7914 11.7621C16.8423 12.2017 15.9263 12.8611 15.0434 13.7402C13.4984 15.2787 12.5658 16.9546 12.2458 18.7679C11.9368 20.5701 12.2072 22.4438 13.0569 24.389C13.9177 26.3231 15.3304 28.2682 17.2948 30.2244C19.3695 32.2904 21.3836 33.7465 23.337 34.5927C25.2904 35.4169 27.15 35.6531 28.9157 35.3015C30.6704 34.9388 32.2928 34.0157 33.7826 32.5321C34.6324 31.686 35.289 30.8233 35.7525 29.9441C36.205 29.054 36.4754 28.1583 36.5637 27.2572C36.652 26.3561 36.5637 25.4659 36.2988 24.5868C35.8237 22.9703 35.8685 21.1046 37.073 19.9221L39.7699 17.2744C42.2608 14.8289 46.3602 15.0493 47.5556 18.3228C47.5835 18.3998 47.6109 18.4771 47.6377 18.5546C47.8507 19.1691 47.9547 19.8125 47.9878 20.4614C47.9961 20.6244 48 20.7877 48 20.951V38.8289C48 43.8939 43.8765 48 38.79 48H9.21004C4.12348 48 0 43.894 0 38.8289V9.17115C0 4.10606 4.12348 0 9.21004 0H28.0411C28.3823 0 28.7109 0.0231571 29.0321 0.0793536Z" fill="url(#paint0_linear_44_239)"/>
<defs>
<linearGradient id="paint0_linear_44_239" x1="24" y1="0" x2="24" y2="48" gradientUnits="userSpaceOnUse">
<stop offset="0.466346" stop-color="#902CC9"/>
<stop offset="0.927885" stop-color="#7728FF"/>
</linearGradient>
</defs>
</svg>
